PathFileType	4	(X/Y/Z)	Patient4_TMGait_0pt4_03_right_19.trc.trc
DataRate	CameraRate	NumFrames	NumMarkers	Units	OrigDataRate	OrigDataStartFrame	OrigNumFrames
74.468085106383	74.468085106383	4	33	mm	74.468085106383	124	       141
Frame#	Time	Sacral			L.Shoulder			Chest			R.Shoulder			Neck			R.ASIS			L.ASIS			R.Thigh.Superior			R.Thigh.Lateral			R.Thigh.Inferior			R.Patella			L.Thigh.Superior			L.Thigh.Lateral			L.Thigh.Inferior			L.Patella			L.Shank.Superior			L.Shank.Lateral			L.Shank.Inferior			R.Shank.Superior			R.Shank.Lateral			R.Shank.Inferior			R.Heel			R.Midfoot.Superior			R.Midfoot.Lateral			R.Toe			L.Heel			L.Midfoot.Lateral			L.Midfoot.Superior			L.Toe			L.Elbow			L.Wrist			R.Elbow			R.Wrist			
		X1	Y1	Z1	X2	Y2	Z2	X3	Y3	Z3	X4	Y4	Z4	X5	Y5	Z5	X6	Y6	Z6	X7	Y7	Z7	X8	Y8	Z8	X9	Y9	Z9	X10	Y10	Z10	X11	Y11	Z11	X12	Y12	Z12	X13	Y13	Z13	X14	Y14	Z14	X15	Y15	Z15	X16	Y16	Z16	X17	Y17	Z17	X18	Y18	Z18	X19	Y19	Z19	X20	Y20	Z20	X21	Y21	Z21	X22	Y22	Z22	X23	Y23	Z23	X24	Y24	Z24	X25	Y25	Z25	X26	Y26	Z26	X27	Y27	Z27	X28	Y28	Z28	X29	Y29	Z29	X30	Y30	Z30	X31	Y31	Z31	X32	Y32	Z32	X33	Y33	Z33	

124	25.801714285714	849.613114871929	1004.710486167904	439.247478457667	1043.945898356400	1414.019369266816	232.940938632713	1134.538906559879	1360.973569071813	406.482479838777	1040.980758325445	1449.707593071210	568.116324154245	1017.780133540662	1491.274579380682	382.558523081516	1073.788703541022	942.012112117844	568.711504045320	1071.935169717007	963.148048979918	293.368083076677	1140.296806445134	754.492677455685	543.371511089505	1081.915623459711	637.460017211220	613.797128973853	1168.429937462405	593.651413083183	535.000569946509	1190.882620429547	508.924409944264	550.750861097445	1088.675577745901	739.907992516566	320.893640020196	978.241737670926	638.000316669387	256.906615921117	1046.191627846231	548.909735219053	318.271865315436	1035.034143956280	482.332086235454	326.511497453365	1005.159243562477	414.502148000751	318.984543882314	905.548124104250	305.688304145982	271.804680031903	954.244386089146	191.625788743454	341.858353202620	1166.648469698150	420.483315816154	563.265294166500	1101.673138761161	314.938710264390	629.467374463443	1159.104505340763	220.755098651885	578.199283949308	1047.060760060525	47.259850847299	556.595278380057	1216.572639767212	102.461851086018	591.094501489582	1131.671746364584	39.976950643691	629.487702834899	1337.585485250172	55.297956944125	616.555686716410	822.886930863697	38.927442574765	392.433171066355	892.527300004226	35.234633827617	308.131633717113	977.086185834614	96.005791415318	331.516330357920	1103.917380490085	44.579062224341	296.455856758005	1067.871006635859	1062.604168165118	118.682513118894	1223.581551552780	849.814340103377	118.078446980941	939.283660529213	1132.798398144607	717.097812228901	990.598486756163	880.825600443653	766.099503816383	
125	25.815142857143	851.569187151279	1003.636394172623	441.049172582475	1044.131167999800	1413.864448724678	236.028551800366	1134.919127414117	1361.052914524178	409.538603688858	1040.697139430700	1448.904657012567	571.310321564217	1017.630171328837	1490.781159529226	385.803841632794	1076.047233303572	940.910146939231	570.256473544682	1074.131780072209	963.106838358177	295.052737339153	1141.943497260817	752.274109666492	543.799934606993	1081.819030874896	635.513232091242	612.971643603986	1168.001257469905	591.586734756141	534.070922836120	1189.082200008256	505.977237819575	548.947925274959	1089.590922954341	738.988030924841	321.309755388504	977.553779473018	637.947721206338	258.048401989662	1044.915301408931	548.165329023155	318.838903764794	1033.414652242849	481.398590861717	327.170823660210	1002.765555729143	413.971058970157	319.638893594306	901.989903808239	306.150232429074	272.468669382552	949.771887610700	191.354968010430	342.054667181029	1163.700297004443	417.151948996101	561.709155844253	1097.265772055158	312.531885944234	628.169874133642	1152.378397654665	217.342025945644	576.095039582863	1037.045581067092	45.604049711039	555.342789778323	1207.022240927669	99.843499608732	588.788396112740	1121.703319659554	38.604108881886	628.244897874506	1327.989636917967	51.966511740807	614.528804948389	817.492287027248	38.953079165656	392.413481774519	887.168169262879	35.223885763392	308.201257438957	971.810669323598	95.931701164284	331.568761340170	1098.631766528878	44.197568289343	296.460438009079	1067.133388623475	1062.434237376641	121.322606660152	1222.085948563114	849.079567050251	120.069726119045	939.073098731152	1131.619648122262	719.327366578857	994.381259906145	880.213721972564	767.576880829886	
126	25.828571428571	853.533194480924	1002.722346395180	442.887716463606	1044.429052629414	1413.853185312481	239.250313967748	1135.398407545494	1361.210320392590	412.720124619478	1040.538388312952	1448.174844416355	574.636928638965	1017.598506081750	1490.416632466615	389.203074079667	1078.254759668506	939.999363112269	571.912840521329	1076.331820368486	963.106408529157	296.863749097772	1143.431113312912	750.313222354671	544.424203073330	1081.748966200900	633.981992024224	612.554587553026	1167.596965092918	589.888346632593	533.536338823293	1187.421602196195	503.468815710318	547.639646238383	1090.625411142169	738.142344945247	321.845374453818	977.120743536401	637.894261341460	259.312224052157	1044.001908187998	547.453231991414	319.554162556386	1032.213702656030	480.408091945085	327.921176478770	1000.676044408272	413.405423096688	320.388798864454	898.608918335328	306.693327347412	273.250723904456	945.392878209938	191.099803496953	342.306656857131	1161.137995424428	414.357423279534	560.625690999287	1093.682528774103	310.523982361922	627.487253018231	1146.605898954188	214.530052598804	574.517898844134	1028.432188516809	44.270080449736	554.623431708848	1198.690220365777	98.068578629738	587.098435726136	1113.160890940814	37.670766271450	627.515549973238	1319.737116915358	49.703322412128	613.059470042190	812.080856977168	39.037536701295	392.400240096091	881.815083979969	35.224749836917	308.289721671022	966.564135605193	95.878797728292	331.621104132237	1093.377634453385	43.770014945861	296.449795271043	1066.138199079963	1062.373368570352	124.141983669983	1220.033690614900	848.253515790214	122.040542599437	939.482449114929	1130.302813077452	721.666585274617	998.940737854581	879.534813344332	769.087124554479	
127	25.842000000000	855.458195404892	1002.018868919423	444.740604998036	1044.876745589974	1414.031984382235	242.575141789174	1135.979846472303	1361.455877298017	416.001701003386	1040.517200122125	1447.551759670427	578.060517657933	1017.702487650522	1490.216047985685	392.726200637711	1080.339610025942	939.326180647911	573.698551059033	1078.480420933380	963.162402146541	298.804237699323	1144.762967254770	748.732851010280	545.279556311154	1081.786243261357	632.919124093527	612.614996250422	1167.284929240333	588.611046309158	533.469612428861	1185.969720559515	501.469504905660	546.949253437453	1091.771066769472	737.422933991206	322.578859164576	977.025690382539	637.832022014810	260.700096276378	1043.568155757309	546.788823408108	320.441681588746	1031.561701769353	479.354308030596	328.739412625075	998.987622340309	412.802741226599	321.219279591975	895.477702428135	307.350223986386	274.147586292814	941.150680365323	190.886717527941	342.604405279197	1159.003130424827	412.145228193248	560.064776760076	1090.907801466192	308.958857044267	627.412351136781	1141.769634917426	212.354456095248	573.478862070558	1021.156588647204	43.303366134896	554.346325822572	1191.557006487144	97.045429967586	586.017639414264	1105.959693717767	37.126114693174	627.220662257676	1312.750964393108	48.330117007965	612.141998951352	806.660680270008	39.257941247410	392.388913252510	876.475026042538	35.271188556731	308.392003408487	961.371861862406	95.861476236218	331.660246596353	1088.160818542547	43.289320951102	296.419672967155	1064.883184749121	1062.472788354875	127.129341427731	1217.412092208609	847.386100650904	124.003715096771	940.544551582004	1128.901624221396	724.128416115854	1004.296271875410	878.859445389495	770.626238583851	
